<?xml version="1.0" ?><svg height="60px" version="1.1" viewBox="0 0 60 60" width="60px" xmlns="http://www.w3.org/2000/svg" xmlns:sketch="http://www.bohemiancoding.com/sketch/ns" xmlns:xlink="http://www.w3.org/1999/xlink"><title/><defs/><g fill="none" fill-rule="evenodd" id="black" stroke="none" stroke-width="1"><g id="tumblr"><path d="M30,60 C46.5685433,60 60,46.5685433 60,30 C60,13.4314567 46.5685433,0 30,0 C13.4314567,0 0,13.4314567 0,30 C0,46.5685433 13.4314567,60 30,60 Z" fill="#000000" id="Tumblr"/><path d="M30.0134265,12.9715036 L30.0134265,21.9234995 L38.1022811,21.9234995 L38.1022811,27.6901949 L30.0134265,27.6901949 L30.0134265,35.8306024 C30.0134265,37.8197014 30.1192454,39.0969279 30.3279232,39.662282 C30.537341,40.226156 30.9273168,40.6768112 31.4963708,41.0142477 C32.2496829,41.4693429 33.1117738,41.6965205 34.0833835,41.6965205 C35.8068254,41.6965205 37.5228673,41.1311665 39.2307692,40.0019384 L39.2307692,45.4127613 C38.9852101,45.5292428 38.418626,47.2834594 32.5991575,47.2834615 C23.1553773,47.2834639 23.1553772,40.6331517 23.1553772,39.0651083 L23.1553773,27.6901949 L18.5046387,27.6901949 L18.5046387,22.0892803 C19.8440245,21.651205 20.7206045,21.1084577 21.6744545,20.2907663 C22.6297844,19.473075 23.3949363,18.4911053 23.9721302,17.3441174 C24.5500641,16.1993495 24.9474399,14.4783566 25.1657376,12.7068153 L30.0134265,12.7068153 L30.0134265,12.9715036 Z" fill="#FFFFFF" id="Tumblr"/></g></g></svg>
