<?xml version="1.0" encoding="utf-8"?>
<!-- Generator: Adobe Illustrator 18.1.1, SVG Export Plug-In . SVG Version: 6.00 Build 0)  -->
<svg version="1.1" id="Layer_1" xmlns="http://www.w3.org/2000/svg" xmlns:xlink="http://www.w3.org/1999/xlink" x="0px" y="0px"
	 viewBox="194 -104 1000 1000" enable-background="new 194 -104 1000 1000" xml:space="preserve">
<path fill="#FFFFFF" d="M1122.5,735.3V306.8c-11.9,13.4-24.7,25.7-38.5,36.8c-99.7,76.6-178.9,139.5-237.7,188.6
	c-19,16-34.4,28.5-46.3,37.4c-11.9,8.9-28,17.9-48.3,27.1s-39.3,13.7-57.2,13.7h-1.1c-17.9,0-36.9-4.6-57.2-13.7
	c-20.3-9.1-36.4-18.1-48.3-27.1s-27.3-21.4-46.3-37.4c-58.8-49.1-138-112-237.7-188.6c-13.8-11.2-26.6-23.4-38.5-36.8v428.5
	c0,4.8,1.8,9,5.3,12.6c3.5,3.5,7.7,5.3,12.6,5.3h821.4c4.8,0,9-1.8,12.6-5.3C1120.7,744.3,1122.5,740.1,1122.5,735.3L1122.5,735.3z
	 M1122.5,148.8v-13.7c0,0-0.1-2.4-0.3-7.3s-0.7-7.2-1.7-7c-0.9,0.2-2-1.5-3.1-5s-2.8-4.9-5-4.2c-2.2,0.7-4.8,0.3-7.8-1.4H283.3
	c-4.8,0-9,1.8-12.6,5.3c-3.5,3.5-5.3,7.7-5.3,12.6c0,62.5,27.3,115.3,82,158.5c71.8,56.5,146.4,115.5,223.8,176.9
	c2.2,1.9,8.7,7.3,19.5,16.5c10.8,9.1,19.3,16.1,25.7,20.9c6.3,4.8,14.6,10.7,24.8,17.6c10.2,6.9,19.6,12,28.2,15.3
	c8.6,3.3,16.6,5,24,5h1.1c7.4,0,15.4-1.7,24-5c8.6-3.3,17.9-8.5,28.2-15.3c10.2-6.9,18.5-12.7,24.8-17.6
	c6.3-4.8,14.9-11.8,25.7-20.9s17.3-14.6,19.5-16.5c77.4-61.4,152-120.3,223.8-176.9c20.1-16,38.8-37.5,56.1-64.4
	C1113.9,195.2,1122.5,170.8,1122.5,148.8L1122.5,148.8z M1193.9,128.2v607.1c0,24.6-8.7,45.6-26.2,63.1
	c-17.5,17.5-38.5,26.2-63.1,26.2H283.3c-24.6,0-45.6-8.7-63.1-26.2S194,759.8,194,735.3V128.2c0-24.6,8.7-45.6,26.2-63.1
	s38.5-26.2,63.1-26.2h821.4c24.6,0,45.6,8.7,63.1,26.2C1185.2,82.6,1193.9,103.6,1193.9,128.2z"/>
</svg>
