<?xml version="1.0" encoding="utf-8"?>
<!-- Generator: Adobe Illustrator 18.1.1, SVG Export Plug-In . SVG Version: 6.00 Build 0)  -->
<svg version="1.1" id="Capa_1" xmlns="http://www.w3.org/2000/svg" xmlns:xlink="http://www.w3.org/1999/xlink" x="0px" y="0px"
	 viewBox="-214 306.8 181.2 181.2" enable-background="new -214 306.8 181.2 181.2" xml:space="preserve">
<g>
	<g>
		<path fill="#FFFFFF" d="M-65.4,306.8h-115.9c-10,0-18.1,8.1-18.1,18.1v144.9c0,10,8.1,18.1,18.1,18.1h115.9
			c10,0,18.1-8.1,18.1-18.1V325C-47.3,315-55.4,306.8-65.4,306.8z M-54.6,469.9c0,6-4.9,10.9-10.9,10.9h-115.9
			c-6,0-10.9-4.9-10.9-10.9V325c0-6,4.9-10.9,10.9-10.9h115.9c6,0,10.9,4.9,10.9,10.9L-54.6,469.9L-54.6,469.9L-54.6,469.9z"/>
		<path fill="#FFFFFF" d="M-85.2,386h-76.4c-1.8,0-3.3,1.5-3.3,3.3c0,1.8,1.5,3.3,3.3,3.3h76.4c1.8,0,3.3-1.5,3.3-3.3
			C-81.9,387.5-83.4,386-85.2,386z"/>
		<path fill="#FFFFFF" d="M-85.2,401.2h-76.4c-1.8,0-3.3,1.5-3.3,3.3s1.5,3.3,3.3,3.3h76.4c1.8,0,3.3-1.5,3.3-3.3
			C-81.9,402.7-83.4,401.2-85.2,401.2z"/>
		<path fill="#FFFFFF" d="M-85.2,416.4h-76.4c-1.8,0-3.3,1.5-3.3,3.3c0,1.8,1.5,3.3,3.3,3.3h76.4c1.8,0,3.3-1.5,3.3-3.3
			C-81.9,417.9-83.4,416.4-85.2,416.4z"/>
		<path fill="#FFFFFF" d="M-85.2,431.6h-38.2c-1.8,0-3.3,1.5-3.3,3.3s1.5,3.3,3.3,3.3h38.2c1.8,0,3.3-1.5,3.3-3.3
			S-83.4,431.6-85.2,431.6z"/>
		<path fill="#FFFFFF" d="M-85.2,461.5H-112c-1.8,0-3.3,1.5-3.3,3.3c0,1.8,1.5,3.3,3.3,3.3h26.7c1.8,0,3.3-1.5,3.3-3.3
			C-81.9,463-83.4,461.5-85.2,461.5z"/>
		<path fill="#FFFFFF" d="M-119.7,371.4c0-6.3-7.3-14.8-17-17.3c4.1-2.8,6.9-8.2,6.9-13.1c0-6.9-5.6-12.5-12.5-12.5
			c-6.9,0-12.5,5.6-12.5,12.5c0,4.9,2.8,10.3,6.9,13.1c-9.8,2.5-17,11-17,17.3C-164.9,378.9-119.7,378.9-119.7,371.4z M-143.3,357.8
			L-143.3,357.8l-2.1-2.4c1,0.4,2,0.6,3.1,0.6c1.1,0,2.1-0.2,3.1-0.6l-2.1,2.4h0l5.3,12.9l-6.3,6.3l-6.3-6.3L-143.3,357.8z"/>
	</g>
</g>
</svg>
